<?xml version="1.0" standalone="no"?>
<!DOCTYPE svg PUBLIC "-//W3C//DTD SVG 20010904//EN"
 "http://www.w3.org/TR/2001/REC-SVG-20010904/DTD/svg10.dtd">
<svg version="1.0" xmlns="http://www.w3.org/2000/svg"
 width="225.000000pt" height="225.000000pt" viewBox="0 0 225.000000 225.000000"
 preserveAspectRatio="xMidYMid meet">
<metadata>
Created by potrace 1.11, written by Peter Selinger 2001-2013
</metadata>
<g transform="translate(0.000000,225.000000) scale(0.100000,-0.100000)"
fill="#000000" stroke="none">
<path d="M0 1125 l0 -1125 1125 0 1125 0 0 1125 0 1125 -1125 0 -1125 0 0
-1125z m2100 85 l0 -220 -765 0 -765 0 0 220 0 220 765 0 765 0 0 -220z
m-1570 -1 l0 -191 -42 38 c-120 106 -168 155 -163 164 3 6 18 -4 32 -20 l26
-31 23 22 24 23 -21 22 c-12 13 -26 21 -30 18 -5 -3 -9 -2 -9 3 0 9 141 142
153 143 4 0 7 -86 7 -191z m-259 66 c22 -18 37 -23 57 -19 19 4 32 0 41 -10
15 -17 7 -51 -9 -41 -6 4 -8 11 -5 16 4 5 -1 12 -10 15 -10 4 -31 -9 -60 -35
-50 -46 -59 -45 -104 3 l-25 26 34 35 c19 19 38 35 43 35 5 0 22 -11 38 -25z
m769 -361 c0 -8 4 -13 9 -10 11 7 28 -12 34 -39 2 -11 4 -8 2 8 -1 17 3 27 12
27 7 0 13 -9 13 -19 0 -11 3 -26 6 -35 5 -13 -3 -16 -48 -16 l-53 0 0 50 c0
33 4 50 13 50 6 0 12 -7 12 -16z m80 12 c0 -11 -19 -15 -25 -6 -3 5 1 10 9 10
9 0 16 -2 16 -4z m710 -17 c0 -5 -10 -8 -22 -6 -18 2 -24 -4 -26 -25 -3 -24 0
-28 20 -28 28 0 48 17 42 35 -6 14 22 28 37 19 5 -3 9 -16 9 -29 0 -13 5 -27
10 -30 7 -4 10 6 8 27 -1 19 2 39 6 46 9 14 46 16 46 2 0 -5 -8 -6 -17 -3 -16
6 -16 5 -4 -10 10 -13 10 -17 1 -17 -8 0 -11 -10 -8 -30 5 -30 4 -30 -44 -30
-31 0 -48 4 -48 12 0 9 -3 9 -12 0 -29 -29 -82 7 -71 49 9 32 73 47 73 18z
m-1075 -34 c0 -37 -2 -40 -30 -43 -29 -3 -30 -2 -30 43 0 45 1 46 30 43 28 -3
30 -6 30 -43z m155 19 c0 -14 4 -23 10 -19 6 3 10 15 10 26 0 30 24 17 31 -17
5 -22 7 -24 9 -9 2 11 3 26 3 33 -1 6 6 12 14 12 9 0 12 -6 9 -17 -3 -10 -8
-30 -12 -45 -7 -32 -34 -38 -34 -8 0 11 -4 20 -10 20 -5 0 -10 -9 -10 -20 0
-38 -27 -20 -37 25 -8 36 -8 45 3 45 8 0 14 -11 14 -26z m251 -2 c-15 -5 -14
-39 2 -45 6 -2 9 -8 5 -12 -16 -17 -38 5 -38 38 0 41 8 51 28 35 9 -8 10 -14
3 -16z m158 21 c-1 -5 0 -19 1 -33 2 -23 3 -23 12 8 14 41 27 41 35 0 6 -30 7
-30 15 -9 4 13 6 27 2 32 -3 5 1 9 9 9 12 0 12 -8 4 -45 -12 -51 -28 -58 -44
-17 l-11 27 -1 -27 c-1 -39 -28 -36 -36 5 -4 17 -12 38 -17 45 -8 9 -5 12 11
12 11 0 20 -3 20 -7z m190 -21 c-12 -5 -11 -42 1 -42 6 0 10 -5 10 -11 0 -25
-35 -2 -41 28 -7 37 7 58 26 40 7 -7 9 -13 4 -15z m-271 -5 c2 -12 -3 -17 -17
-17 -12 0 -21 -4 -21 -10 0 -5 9 -10 20 -10 11 0 20 -4 20 -10 0 -14 -33 -13
-48 2 -15 15 -15 41 0 56 17 17 42 11 46 -11z m220 11 c7 -7 12 -25 12 -40 0
-24 -4 -28 -29 -28 -29 0 -49 24 -30 35 5 4 6 11 3 17 -4 6 0 14 7 19 18 12
23 11 37 -3z m116 6 c23 -9 20 -34 -4 -34 -27 0 -25 -18 3 -23 19 -3 20 -4 5
-11 -10 -5 -25 -6 -33 -2 -18 7 -20 47 -3 64 14 14 12 14 32 6z m134 -13 c3
-10 -1 -12 -14 -8 -19 7 -19 7 0 -7 11 -9 16 -22 13 -31 -7 -17 -47 -21 -47
-4 0 6 7 9 15 5 27 -10 16 9 -16 28 l-32 19 5 -32 c3 -23 1 -31 -11 -31 -12 0
-16 9 -14 37 1 21 2 38 2 39 1 0 22 0 48 0 30 -1 48 -6 51 -15z m300 -3 c2
-11 -5 -18 -20 -21 l-23 -4 23 -8 c26 -9 29 -25 4 -25 -37 0 -55 43 -30 68 17
17 42 11 46 -10z m-1212 4 c-2 -4 -1 -14 5 -22 7 -12 9 -10 9 8 0 12 6 22 14
22 11 0 10 -10 -7 -50 -11 -27 -27 -50 -34 -50 -7 0 -13 5 -13 10 0 6 5 10 11
10 11 0 8 25 -7 64 -4 11 -1 16 11 16 9 0 14 -4 11 -8z"/>
<path d="M1110 1210 l0 -200 485 0 485 0 0 200 0 200 -485 0 -485 0 0 -200z
m164 98 l33 -73 37 73 36 72 50 0 50 0 0 -170 0 -170 -35 0 -35 0 -1 118 -1
117 -36 -77 c-31 -69 -38 -78 -62 -78 -24 0 -31 9 -63 78 l-36 77 0 -117 -1
-118 -35 0 -35 0 0 170 0 170 50 0 51 0 33 -72z m447 62 c27 -15 49 -62 49
-106 0 -28 -8 -44 -35 -71 l-35 -35 24 -31 c13 -18 31 -44 41 -59 l17 -28 -43
0 c-43 0 -45 2 -83 60 -50 78 -66 78 -66 0 l0 -60 -40 0 -40 0 0 170 0 170 96
0 c52 0 104 -5 115 -10z m310 -19 c24 -24 29 -38 29 -76 0 -25 -5 -55 -10 -66
-16 -29 -64 -49 -120 -49 l-50 0 0 -60 0 -60 -35 0 -35 0 0 170 0 170 96 0
c92 0 97 -1 125 -29z"/>
<path d="M1590 1270 l0 -50 39 0 c60 0 85 34 61 81 -8 14 -21 19 -55 19 l-45
0 0 -50z"/>
<path d="M1880 1270 l0 -50 36 0 c50 0 74 15 74 48 0 39 -17 52 -67 52 l-43 0
0 -50z"/>
<path d="M664 1297 c-3 -8 -4 -51 -2 -97 2 -66 7 -85 21 -94 24 -15 51 3 55
38 2 18 -1 26 -12 26 -10 0 -16 -9 -16 -21 0 -12 -5 -19 -12 -17 -14 5 -23 97
-13 135 6 27 25 21 25 -8 0 -10 7 -19 15 -19 15 0 20 26 9 54 -8 20 -62 22
-70 3z"/>
<path d="M776 1293 c-9 -32 -27 -185 -22 -190 9 -9 26 8 26 28 0 10 7 19 15
19 8 0 15 -9 15 -19 0 -20 17 -37 27 -27 3 3 0 50 -7 106 -11 84 -16 100 -31
100 -10 0 -20 -8 -23 -17z m27 -80 c5 -23 3 -33 -6 -33 -9 0 -12 11 -9 36 5
41 7 40 15 -3z"/>
<path d="M860 1205 c0 -63 4 -105 10 -105 6 0 10 20 10 45 0 38 3 45 20 45 11
0 20 7 20 15 0 8 -9 15 -20 15 -16 0 -20 7 -20 30 0 25 4 30 25 30 16 0 25 6
25 15 0 10 -11 15 -35 15 l-35 0 0 -105z"/>
<path d="M942 1208 l3 -103 31 -3 c21 -2 33 2 37 12 5 12 0 16 -18 16 -21 0
-25 5 -25 30 0 23 4 30 20 30 11 0 20 7 20 15 0 8 -9 15 -20 15 -30 0 -29 57
2 62 41 6 32 28 -12 28 l-41 0 3 -102z"/>
<path d="M210 1255 c-23 -24 -23 -25 -5 -45 23 -26 37 -25 63 3 21 22 21 24 5
39 -32 27 -40 28 -63 3z"/>
<path d="M1040 865 c0 -15 4 -24 10 -20 6 3 10 12 10 20 0 8 -4 17 -10 20 -6
4 -10 -5 -10 -20z"/>
<path d="M1855 860 c-3 -5 -1 -10 4 -10 6 0 11 5 11 10 0 6 -2 10 -4 10 -3 0
-8 -4 -11 -10z"/>
<path d="M720 900 c0 -5 5 -10 11 -10 5 0 7 5 4 10 -3 6 -8 10 -11 10 -2 0 -4
-4 -4 -10z"/>
<path d="M720 854 c0 -8 5 -12 10 -9 6 3 10 10 10 16 0 5 -4 9 -10 9 -5 0 -10
-7 -10 -16z"/>
<path d="M1425 860 c-3 -5 -1 -10 4 -10 6 0 11 5 11 10 0 6 -2 10 -4 10 -3 0
-8 -4 -11 -10z"/>
</g>
</svg>
